<?xml version="1.0" encoding="utf-8"?>
<!-- Generator: Adobe Illustrator 27.0.1, SVG Export Plug-In . SVG Version: 6.00 Build 0)  -->
<svg version="1.1" id="Layer_1" xmlns="http://www.w3.org/2000/svg" xmlns:xlink="http://www.w3.org/1999/xlink" x="0px" y="0px"
	 viewBox="0 0 543.2 633.6" style="enable-background:new 0 0 543.2 633.6;" xml:space="preserve">
<style type="text/css">
	.st0{fill:#FFFFFF;}
	.st1{fill:#E6E6E6;}
	.st2{fill:#FFB6B6;}
	.st3{fill:#3F3D56;}
	.st4{fill:#F65D5A;}
	.st5{fill:#2F2E41;}
	.st6{fill:#CACACA;}
</style>
<path class="st0" d="M407.1,222.6H97.8c-48-0.1-86.9-38.9-86.9-86.9V97.8C11,49.8,49.8,11,97.8,10.9h347.1
	c48,0.1,86.9,38.9,86.9,86.9C531.8,166.7,475.9,222.5,407.1,222.6z"/>
<path class="st1" d="M327.3,68H122.9c-2.4,0-4.4-2-4.4-4.4c0-2.4,2-4.4,4.4-4.4h204.4c2.4,0,4.4,2,4.4,4.4
	C331.7,66,329.7,68,327.3,68z"/>
<path class="st1" d="M430.8,115H122.9c-2.4,0-4.4-2-4.4-4.4c0-2.4,2-4.4,4.4-4.4h307.9c2.4,0,4.4,2,4.4,4.4
	C435.2,113,433.2,115,430.8,115z"/>
<path class="st1" d="M430.8,162H122.9c-2.4,0-4.4-2-4.4-4.4c0-2.4,2-4.4,4.4-4.4h307.9c2.4,0,4.4,2,4.4,4.4
	C435.2,160.1,433.2,162,430.8,162z"/>
<path class="st1" d="M430.8,162H122.9c-2.4,0-4.4-2-4.4-4.4c0-2.4,2-4.4,4.4-4.4h307.9c2.4,0,4.4,2,4.4,4.4
	C435.2,160.1,433.2,162,430.8,162z"/>
<path class="st2" d="M305.7,120.4c0.2,5,4.4,8.9,9.4,8.7c0.5,0,1.1-0.1,1.6-0.2l16.8,27.6l7.2-15.2l-17.1-23.9
	c-1.4-4.9-6.5-7.7-11.3-6.3C308.3,112.4,305.5,116.2,305.7,120.4L305.7,120.4z"/>
<path class="st3" d="M431.9,199.4L373.9,168l-18.3-17.1c0,0-7.9-2.1-5-4.7s-5.4-5.1-5.4-5.1l-9.8-9.2l-13.9,9.9l4,6.3
	c0,0-0.3,10.4,5.4,8.4s4.3,6.6,4.3,6.6l33.8,52.5L431.9,199.4z"/>
<circle class="st4" cx="260.9" cy="113.2" r="56.6"/>
<polygon class="st2" points="432,611.6 420.3,611.6 414.7,566.2 432,566.2 "/>
<path class="st5" d="M438.3,632h-8.4l-1.5-8l-3.9,8h-22.4c-2.8,0-5-2.3-5-5c0-1.7,0.8-3.2,2.2-4.1l17.9-12.3v-8.1l18.8,1.1
	L438.3,632z"/>
<polygon class="st2" points="337.9,611.6 326.2,611.6 320.6,566.2 337.9,566.2 "/>
<path class="st5" d="M344.2,632h-8.4l-1.5-8l-3.9,8H308c-2.8,0-5-2.3-5-5c0-1.7,0.8-3.2,2.2-4.1l17.9-12.3v-8.1l18.8,1.1L344.2,632z
	"/>
<rect x="360.2" y="268.4" class="st2" width="59.4" height="67.6"/>
<path class="st5" d="M361.5,301.7l-10,11.9l-17.4,36.5l-43.7,104.1l-9.3,22l7.5,38.9c0,0,1.2,27.4,1.2,31.9c0,9.1,7.6,14.2,7.6,14.2
	l5.6,29.2l54.4-2.3c0,0-1.9-32.2-13.3-40.3s-16.6-50.4-16.6-50.4l-6.2-18.8l60.3-71.5l0.4,25l0.2,12.1c0,0-8.8,78.7,1.5,93.9
	s0.2,13.5,0.2,13.5l0.5,31.5l64.4,0.5l-14.2-90.7c0,0-7.2-5.7-3.4-11.4s-3.7-12.7-3.7-12.7l3.4-70.8c0,0-3.8-12.2,0.7-13.8
	s0.6-12.1,0.6-12.1l0.7-13.7l-13.2-42.5L361.5,301.7z"/>
<path class="st3" d="M420.5,268.4l6.4-19.2l4.6-6.4l1.8-18.3c0-49.3-11-41.1-11-41.1l-6.4-17.4l-29.2-0.9L367.9,183l-15.5,5.5
	l-6.1,31.6l11.1,33.7l2.7,18.3c-5.2,9.7-4.8,5.1-0.5,12.3l51.6,14.2c18.3,6.4,18.3-10,14.6-14.2
	C422.3,280.3,420.5,268.4,420.5,268.4z"/>
<circle class="st2" cx="397.5" cy="131.9" r="27.1"/>
<path class="st5" d="M371.1,174.6"/>
<path class="st5" d="M433.7,168.1c0.9,1.6,0.4,3.6-1.2,4.6c-0.2,0.1-0.4,0.2-0.7,0.3c-3.6,1.2-5.9,4.7-8.5,7.5
	c-2.6,2.8-6.8,5.1-10.1,3.2c-3.3-1.9-3.5-6.8-6.3-9.4c-2.7-2.6-7.2-2.2-10.4-0.3l-0.1,0.1c-1.6,1-3.6,0.6-4.6-1
	c-0.5-0.7-0.6-1.6-0.5-2.4c1.1-5.9,2.2-11.8,3.3-17.8c-2.9,7-7.2,13.5-12.5,18.9c-1.5,1.7-3.3,3-5.4,3.8c-1.9,0.6-3.7-1.4-5.6-1
	c4.6-4,20-29.7,17.2-46.9c-3.2,0.4-6.5,0.7-9.7,1.1c-0.4-1.5-1.1-2.9-2.2-4.1c0.1,1.5-0.1,3-0.6,4.4c-1.4,0.2-2.7,0.3-4.1,0.5
	c-1.9,0.2-3.9,0.4-5.5-0.6c-2.7-1.6-2.8-5.5-2-8.6c2.2-8.9,9.1-16.4,17.4-20.3c8.3-3.9,10.8,4.8,19.6,2c17.4-5.5,30.7,3.9,35.3,21.3
	C440.6,138,437.7,153.5,433.7,168.1z"/>
<path class="st6" d="M542,633.3l-315.4,0.3c-0.7,0-1.2-0.5-1.2-1.2c0-0.7,0.5-1.2,1.2-1.2l315.4-0.3c0.7,0,1.2,0.5,1.2,1.2
	C543.2,632.8,542.7,633.3,542,633.3L542,633.3z"/>
<path class="st3" d="M255.7,189.4L221,160.1c-2.5-2.1-2.8-5.8-0.7-8.3l6.4-7.6c2.1-2.5,5.8-2.8,8.3-0.7l34.7,29.3
	c2.5,2.1,2.8,5.8,0.7,8.3l-6.4,7.6C261.9,191.2,258.2,191.5,255.7,189.4z"/>
<path class="st0" d="M222.8,152.5c-1.1,1.3-1,3.3,0.4,4.4l34.7,29.3c1.3,1.1,3.3,1,4.4-0.4l6.4-7.6c1.1-1.3,1-3.3-0.4-4.4
	l-34.7-29.3c-1.3-1.1-3.3-1-4.4,0.4L222.8,152.5z"/>
<path class="st4" d="M243.2,163.9c-0.2,0.3-0.6,0.5-1.1,0.6l-5.5,0.1c-0.7,0-1.3-0.6-1.4-1.3s0.6-1.3,1.3-1.4l3.6-0.1l-3.5-9.3
	c-0.3-0.7,0.1-1.5,0.8-1.7c0.7-0.3,1.5,0.1,1.7,0.8l4.2,11C243.5,163,243.5,163.5,243.2,163.9L243.2,163.9z"/>
<path class="st2" d="M243.9,166.2c5,0.7,8.4,5.3,7.7,10.3c-0.1,0.5-0.2,1.1-0.4,1.6l25.6,19.7l-15.9,5.5l-21.9-19.6
	c-4.7-1.9-6.9-7.2-5-11.9C235.7,167.8,239.7,165.5,243.9,166.2L243.9,166.2z"/>
<path class="st3" d="M377.1,175.9l-65.5,40.3c0,0-26.4-9.8-21.3-14.3s-11.3-7.6-11.3-7.6l-18.2-12.2l-10.5,12.2
	c0,0,1.9,19.9,5.2,16.4s8.1,6,8.1,6s1.4,10.5,10.7,7.9s34.2,25.1,34.2,25.1l80.6-30.1L377.1,175.9z"/>
<path class="st0" d="M258.9,135.9c-1.5,0-3-0.7-3.9-2l-12-16c-1.6-2.2-1.2-5.2,1-6.8c2.2-1.6,5.2-1.2,6.8,1l0,0l7.8,10.5l20.2-30.2
	c1.5-2.2,4.5-2.9,6.8-1.4c2.2,1.5,2.9,4.5,1.4,6.8l-24,36c-0.9,1.3-2.3,2.1-3.9,2.2C259,135.9,258.9,135.9,258.9,135.9z"/>
</svg>
