<?xml version="1.0" encoding="utf-8"?>
<!-- Generator: Adobe Illustrator 27.0.1, SVG Export Plug-In . SVG Version: 6.00 Build 0)  -->
<svg version="1.1" id="Layer_1" xmlns="http://www.w3.org/2000/svg" xmlns:xlink="http://www.w3.org/1999/xlink" x="0px" y="0px"
	 viewBox="0 0 766.8 500.9" style="enable-background:new 0 0 766.8 500.9;" xml:space="preserve">
<style type="text/css">
	.st0{fill:#FFB7B7;}
	.st1{fill:#2F2E41;}
	.st2{fill:#FFB8B8;}
	.st3{fill:#F65D5A;}
	.st4{fill:#3F3D56;}
	.st5{fill:#9F616A;}
	.st6{fill:#E6E6E6;}
	.st7{fill:#A0616A;}
	.st8{fill:#E5E5E5;}
	.st9{opacity:0.1;enable-background:new    ;}
</style>
<polygon class="st0" points="314.6,442.1 329.1,442.1 336.1,386 314.6,386 "/>
<path class="st1" d="M310.9,437.3h28.7l0,0c10.1,0,18.3,8.2,18.3,18.3v0.6H311L310.9,437.3z"/>
<polygon class="st0" points="235.8,442.1 250.3,442.1 257.2,386 235.8,386 "/>
<path class="st1" d="M232,437.3h28.7l0,0c10.1,0,18.3,8.2,18.3,18.3v0.6h-46.9L232,437.3z"/>
<polygon class="st1" points="229.8,187.6 229.8,335.9 233.6,431.6 264.5,431.6 274.9,251.4 295.5,325.6 308.6,429.7 346.2,427.8 
	320.8,187.6 "/>
<circle class="st2" cx="265.8" cy="31.9" r="22.5"/>
<polygon class="st3" points="256.5,60.3 250.5,66.6 244.8,193.3 311.5,191.4 295.5,80.7 281.4,67.2 274.3,60.3 "/>
<path class="st4" d="M245.8,74.1l5.1-8.2l1.5,17.6c0,0,12.2,39.4,11.3,74.1s4.7,116.3-2.8,117.3s-39.4,2.8-39.4-3.8
	S219.6,90,219.6,90L245.8,74.1z"/>
<path class="st4" d="M279.9,65.9L292.7,76l28.1,10.3c0,0,0,120.1,5.6,148.2s16,31,2.8,31.9s-12.2-3.8-12.2-3.8s9.4-46.9-2.8-56.3
	s-35.7-63.8-33.8-93.8S278,65.9,279.9,65.9z"/>
<path class="st1" d="M244.5,38.9c0,0,1.9-3.4,1.5-14.6s16.6-4.9,30.9-5.9s11.3,18.7,11.3,18.7s1-1.2,3.2-10.7s-2.8-19.1-2.8-19.1
	c-1.5-10-9.4-6.8-9.4-6.8c3.8,1.5,3.1,4.7,3.1,4.7c-3.2-5.7-11.2-2.5-11.2-2.5c-10.6-6.7-21.3,2.1-21.3,2.1
	c-12.8,2.9-5.3,13.1-5.3,13.1C231.6,24.4,244.5,38.9,244.5,38.9z"/>
<path class="st0" d="M221.4,257.6c3.6-3.8,3.4-9.8-0.4-13.4c-0.4-0.4-0.8-0.7-1.3-1l4.1-21.3l-12.4-5.6l-5.3,30.2
	c-2.6,4.6-1,10.4,3.6,13C213.6,261.5,218.4,260.8,221.4,257.6L221.4,257.6z"/>
<path class="st4" d="M224.2,90.1l-2.5-1.3c0,0-13.5,5.1-12.5,8.8s-7.5,135.1-4.7,139.8s25.3,0.9,25.3,0.9L224.2,90.1z"/>
<path class="st0" d="M331.3,248.7c-4.1-3.3-4.8-9.3-1.5-13.4c0.3-0.4,0.7-0.8,1.2-1.2l-7-20.6l11.5-7.3l9.4,29.2
	c3.2,4.2,2.4,10.2-1.8,13.4C339.6,251.6,334.7,251.5,331.3,248.7L331.3,248.7z"/>
<path class="st4" d="M320.3,230.8c0,0,22.8,0.6,25-4.4s-24.4-134-24-137.8s-13.6-7-13.6-7l-2.3,1.7L320.3,230.8z"/>
<path class="st0" d="M421.2,236.6L407,167.4l-6.2-51.1l-13.7,8.9l1.9,56.3l21.9,58.4c-2,3.7-0.5,8.4,3.2,10.3s8.4,0.5,10.3-3.2
	C426.4,243.2,425,238.6,421.2,236.6L421.2,236.6L421.2,236.6z"/>
<path class="st0" d="M289,242l3.9-70.5l-1.3-51.5l18.2,6.8l3,56l-13.2,61c2.5,3.4,1.7,8.2-1.7,10.7c-3.4,2.5-8.2,1.7-10.7-1.7
	C284.8,249.3,285.5,244.5,289,242L289,242L289,242z"/>
<polygon class="st0" points="327.1,447.1 336.4,447.1 340.8,411.2 327.1,411.2 "/>
<path class="st1" d="M324.7,444H343l0,0c6.4,0,11.7,5.2,11.7,11.7v0.4h-29.9L324.7,444z"/>
<polygon class="st0" points="362.3,443 371.5,444.4 381.3,409.7 367.8,407.6 "/>
<path class="st1" d="M360.4,439.6l18.1,2.8l0,0c6.4,1,10.7,6.9,9.7,13.3l-0.1,0.4l-29.6-4.6L360.4,439.6z"/>
<path class="st1" d="M324.4,436.4v-0.3l-33.6-181.8c-2.7-14.6-0.5-29.7,6.1-42.9l20.4-40.7l60.7,8.2l7.2,51.8l25.5,98.9v0.1
	L378,433.6l-21.4,1.4l19-92.8l-34.8-79L343,435L324.4,436.4z"/>
<path class="st3" d="M379.3,185.5l-0.4-0.6c-0.1-0.1-7.4-11.2-27.5-3.8c-20.5,7.6-36.4-7.1-36.5-7.2l-0.1-0.1l-4.6-41.4l-5.5-33.6
	l17.4-3.1l8.6-5.1l34.1-0.6l9,7.1l14.7,1.6l1.3,30.6l0,0L379.3,185.5z"/>
<path class="st3" d="M384.1,132.3v-26.2l4.1-7.6h0.2c3.3,0.1,6.3,1.5,8.6,3.9c4.2,4.2,6.1,11.3,5.6,21v0.2L384.1,132.3z"/>
<path class="st3" d="M312,129.4l-21.1-2.5v-0.2c-0.7-10.5,1.1-18.3,5.5-23.2c2.2-2.6,5.3-4.3,8.7-4.7h0.1l5.7,5.2L312,129.4z"/>
<path class="st1" d="M373.1,79.5h-55.6c-2.4,0-4.3-1.9-4.3-4.3V55.1c0-17.7,14.3-32.1,32-32.1s32.1,14.3,32.1,32v0.1v20.1
	C377.4,77.6,375.4,79.5,373.1,79.5z"/>
<circle class="st0" cx="346.6" cy="55.8" r="23.5"/>
<path class="st1" d="M368.9,56.5h-31.1c-1.2,0-2.2-0.9-2.4-2.1l-0.4-3.2c-0.1-0.8-0.8-1.3-1.6-1.2c-0.5,0.1-0.9,0.4-1.1,0.8l-2,4.4
	c-0.4,0.8-1.2,1.4-2.2,1.4h-4.7c-1.3,0-2.4-1.1-2.4-2.4c0-0.1,0-0.2,0-0.2l1.9-19.4c0.1-0.8,0.6-1.6,1.4-2c14.2-6.6,28.6-6.6,42.9,0
	c0.7,0.3,1.2,1,1.4,1.8l2.8,19.4c0.2,1.3-0.7,2.5-2,2.7C369.2,56.5,369.1,56.5,368.9,56.5L368.9,56.5z"/>
<path class="st5" d="M381.7,238.8c4.5-1.6,6.8-6.5,5.2-11c-0.2-0.5-0.4-0.9-0.6-1.4l20.1-23l-15.7-2.2L374,223.5
	c-4,2.6-5.1,8-2.5,12C373.8,238.8,378,240.2,381.7,238.8z"/>
<polygon class="st5" points="406,442.2 392,442.2 385.3,388.1 406,388.1 "/>
<path class="st1" d="M409.6,455.8h-45.3v-0.6c0-9.7,7.9-17.6,17.6-17.6l0,0h27.7L409.6,455.8z"/>
<polygon class="st5" points="479.5,430.5 466.1,434.6 443.7,384.9 463.5,378.8 "/>
<path class="st1" d="M487,442.4l-43.2,13.4l-0.2-0.5c-2.9-9.3,2.3-19.2,11.6-22.1l0,0l26.4-8.2L487,442.4z"/>
<path id="f1066638-9b86-4717-bcc8-db5f2da468bd-1684" class="st6" d="M395.2,192.5l-20.8,23.8l16.3,1.5L395.2,192.5z"/>
<path id="af262a15-c86f-47ab-a56c-b4ab6ae66702-1685" class="st1" d="M387.1,223.2c0,0-7.2,3.6-8.1,19.9s2.7,58.7,2.7,58.7
	s-3.6,19,0,36.1s-3.6,79.5,0.9,79.5s28,2.7,28.9,0s1.8-43.3,1.8-43.3s7.2-20.8,0-33.4c0,0,25.2,44,41.5,77.7
	c3.6,7.4,30.7-0.9,26.2-9s-15.4-45.2-15.4-45.2s-8.1-27.1-22.6-38.8l7.2-57.8c0,0,15.4-38.8,6.3-44.2S387.1,223.2,387.1,223.2z"/>
<circle id="fbcb1e7b-18f5-4394-a5dd-21324d3d96d7" class="st7" cx="414.2" cy="52.5" r="23.5"/>
<path id="f91d5893-36b1-4b4e-ad68-e940b5b31ca4-1686" class="st8" d="M440.4,77.8L411.2,95c0,0-11.2,6.3-15.4,17.2
	c-4.4,11.6-1.9,27.9,0,31.6c3.6,7.2-1.5,25.3-1.5,25.3l-4.5,41.5c0,0-16.3,15.4-3.6,17.2s35.2-0.9,48.8,0s28.9,2.7,24.4-6.3
	s-9.9-15.4-4.5-33.4c4.2-14.1,4.1-67,3.8-89.3c-0.1-6.2-3.4-12-8.7-15.2L440.4,77.8z"/>
<path id="ab5b7163-34aa-4542-8f5b-346ef47d8115-1687" class="st9" d="M427.3,106.3l2.7,55.1l-26.3,53.2l-4.5-1.7l27.1-49.7
	L427.3,106.3z"/>
<path id="a0747de6-ab5b-4f6b-918c-fa029658d911-1688" class="st9" d="M457.1,173.1v-6.3l-30.7,50.6L457.1,173.1z"/>
<path id="fa11fa6f-8d0b-4738-bd9e-1b384a1b66c7-1689" class="st1" d="M397.5,30.8l-3.9-1.6c0,0,8.1-8.9,19.4-8.2l-3.2-3.5
	c0,0,7.8-3.1,14.8,5c3.7,4.3,8,9.3,10.7,15h4.2l-1.7,3.8l6.1,3.8l-6.2-0.7c0.6,3.3,0.4,6.7-0.6,9.9l0.2,3c0,0-7.2-11.2-7.2-12.7v3.9
	c0,0-3.9-3.5-3.9-5.8l-2.1,2.7l-1.1-4.3l-13.1,4.3l2.1-3.5l-8.1,1.2l3.2-4.3c0,0-9.2,5-9.5,9.3s-4.9,9.7-4.9,9.7l-2.1-3.9
	C390.5,54.1,387.3,36.6,397.5,30.8z"/>
<path class="st5" d="M412.7,241.4c4.1-2.4,5.6-7.6,3.2-11.7c-0.3-0.4-0.5-0.9-0.9-1.2l15.7-26.2l-15.9,0.7l-12.5,24.7
	c-3.5,3.3-3.6,8.8-0.3,12.2C404.9,242.7,409.3,243.4,412.7,241.4L412.7,241.4z"/>
<path id="b6ea18e9-d072-4df0-8b87-7f4e4805b6d9-1690" class="st8" d="M448.5,89.6l6.8-1.4c0,0,20.3,14.9,14,44.7s-34.3,75-34.3,75
	s-6.3,8.1-8.1,9.9s-5.4,0-3.6,2.7s-2.7,4.5-2.7,4.5s-19.9,0-18.1-7.2s32.5-58.7,32.5-58.7l-4.5-47.9
	C430.5,111.2,426.9,87.8,448.5,89.6z"/>
<path class="st1" d="M153.2,124.7c0.2,29.5-18.6,25-41.6,25s-39.6,4.4-41.6-25C66.9,78,79.1,43,111.6,43
	C145.2,43,152.9,78,153.2,124.7z"/>
<path class="st7" d="M27.4,62.2c2.8,5.7,0.5,12.5-5.2,15.3c-0.6,0.3-1.2,0.5-1.9,0.7l-2.1,40.7l-17-12.5l4.6-36.7
	C4.5,63.5,8.4,57.4,14.6,56C19.8,54.9,25.1,57.4,27.4,62.2L27.4,62.2z"/>
<path class="st7" d="M181.1,292c3.5-5.3,2-12.4-3.2-15.9c-0.6-0.4-1.2-0.7-1.8-1l3-40.6l-18.5,10.3v37c-2.1,6,1,12.6,7,14.7
	C172.6,298.3,178.2,296.4,181.1,292L181.1,292z"/>
<polygon class="st7" points="96,487.4 110,487.4 116.6,433.5 96,433.5 "/>
<path class="st1" d="M92.4,482.8h27.5l0,0c9.7,0,17.5,7.8,17.5,17.5l0,0v0.6h-45L92.4,482.8z"/>
<polygon class="st7" points="184.8,487.4 198.8,487.4 205.5,433.5 184.8,433.5 "/>
<path class="st1" d="M181.3,482.8h27.5l0,0c9.7,0,17.5,7.8,17.5,17.5l0,0v0.6h-45V482.8z"/>
<path class="st3" d="M176.9,269.6l-0.6-0.1c-5.1-0.9-10.2-1.9-14.8-2.8l-0.4-0.1v-0.5c-0.1-20.7-0.2-41.3-0.3-62.1
	c-10.8-21.8-15.4-46.2-13.1-70.4v-0.3l0.2-0.2c4-2.8,9.2-3.2,13.6-1.1c4.3,2.3,7.2,6.6,7.7,11.5c4.1,22.4,8.4,45.7,13.1,68.6v0.1
	v0.1c-1.8,18.7-3.6,38-5.5,56.7L176.9,269.6z"/>
<path class="st1" d="M167.8,468.2l-0.1-0.5c-6.5-30.9-12.8-56.1-18.9-80.4c-7.3-29.2-14.2-56.8-21.2-92.6c1,45.1,3.2,77.5,5.8,114.8
	c1.2,16.8,2.4,34.2,3.6,54.5v0.6h-0.6c-21.9-0.6-44.3-1.9-65.9-3.2h-0.6v-0.6c4.1-60.4,5.4-99.7,6.3-128.4c2-60.5,2.3-69.8,24.8-121
	c0.9-1.9,6-7.7,11.6-6.8l44.3,6.9l0.1,0.4c1.3,6.3,7.5,25.4,16.1,51.9c18.4,56.6,46.1,142.1,54.8,193.1l0.1,0.6l-0.6,0.1
	c-12.6,1.8-21.7,3.7-30.4,5.5c-8.3,1.7-16.9,3.5-28.5,5.2L167.8,468.2z"/>
<path class="st3" d="M129.2,227.4c-11.8,0-23.5-4.1-31.9-12.1c-2.7-1.5-4.4-4.3-4.7-7.4c-0.4-2.8,0.4-5.7,2.3-7.8
	c-8.2-10-16.7-20.2-24.8-30.7l-0.2-0.3l0.3-0.5c5.3-10.2,10.8-20.7,16.1-31c0.7-1.8,2.4-3.1,4.4-3.3c1.7-0.3,3.5,0.1,4.9,1.1v-0.3
	c0.2-5.3,0.4-10.5,0.7-15.5v-0.5h0.5c10.2-0.2,20.6-0.5,31-1.1h0.4l5.1,11.4c8.3-0.8,16.7,0.9,24,4.9l0.3,0.2v0.4
	c-2.1,19.6-1.6,39.4,1.3,58.9c-0.2,8.9-0.3,18-2.1,25.2l-0.1,0.2l-0.2,0.1C148.4,224.7,138.9,227.5,129.2,227.4z"/>
<path class="st3" d="M85.7,177.9l-0.7-0.3c-8-4-15.9-8.4-23.6-12.7l-1.1-0.2c-20.3-4.1-31.5-6.3-49.8-17.1l-0.1-0.1l-0.1-0.1
	c-9.2-17.5-11.7-32.9-9.4-56.5v-0.5h0.5c2-0.2,5.2-0.3,8.4-0.4c3-0.1,6.2-0.2,8.1-0.4h0.4l0.1,0.4c2.4,7.4,4.4,14.3,6.6,21.7
	c2.2,7.5,4.5,15.3,7.3,24c10.2,2.9,37.7,2.1,46.2,0.9c5.2-0.4,10.2,1.9,13.3,6.1l0.2,0.2v0.3c-1.9,11.5-4,23-6.1,34.1L85.7,177.9z"
	/>
<circle class="st7" cx="111.1" cy="86.8" r="28"/>
<path class="st1" d="M79.2,85.2L79.2,85.2h11.1l4.9-13.7l1,13.7h5.3l2.8-8l0.6,8h39.3l0,0c0-16.4-13.3-29.6-29.6-29.6h-5.7
	C92.4,55.5,79.2,68.8,79.2,85.2L79.2,85.2z"/>
</svg>
