<?xml version="1.0" encoding="utf-8"?>
<!-- Generator: Adobe Illustrator 27.0.1, SVG Export Plug-In . SVG Version: 6.00 Build 0)  -->
<svg version="1.1" id="Layer_1" xmlns="http://www.w3.org/2000/svg" xmlns:xlink="http://www.w3.org/1999/xlink" x="0px" y="0px"
	 viewBox="0 0 464.3 544.3" style="enable-background:new 0 0 464.3 544.3;" xml:space="preserve">
<style type="text/css">
	.st0{fill:#F65D5A;}
	.st1{fill:#2F2E41;}
	.st2{fill:#A0616A;}
	.st3{fill:#3F3D56;}
	.st4{fill:#CCCCCC;}
</style>
<path class="st0" d="M102.1,234.8c20.2-11.1,45.4-8.9,67.2-1.3s41.5,20,62.7,29.2c64.6,28.1,142.5,23.6,203.5-11.8
	c5.8,13.4-0.4,28.7-7.2,41.7s-14.5,26.9-11.7,41.2c3.6,18.3,22.8,29.3,30.6,46.3c7.4,16.1,3.4,35-2.2,51.8s-13,33.7-12.1,51.4
	s13.8,36.4,31.5,36.4c-26.3,4.1-53.1,8.2-79.3,4c-26.3-4.2-52.4-18.1-64.6-41.7c-6.1-11.8-8.4-25.4-15.4-36.7
	c-11.9-19.2-34.8-28.3-56.4-35.1s-44.7-13.4-59.9-30.2c-14.5-16-19.1-38.2-26.7-58.4c-12.9-33.7-35.4-63-64.6-84.2"/>
<path class="st1" d="M125.5,151.1c-7.1-3.3-15.8-4.4-23-1.3s-12.1,10.9-9.8,17.9c1.1,3.2,3.5,6.3,2.5,9.4c-0.7,2.5-3.2,4.1-5.7,5.2
	s-5.2,2.1-7,4.1s-2.2,5.3,0.1,6.8c0.7,0.5,1.7,0.7,2.4,1.3c1.2,1,1.7,2.7,1.2,4.2c-0.6,1.5-1.6,2.8-2.9,3.8
	c-2.5,2.2-5.9,4.7-5.1,7.8c0.6,1.7,2,3,3.7,3.5c1.8,0.5,3.6,0.7,5.4,0.7l75,2.4c2.5,0.2,5,0,7.4-0.4c2.4-0.4,4.5-1.9,5.8-3.9
	c1.4-2.7,0.5-5.9-1.3-8.4s-4.3-4.4-6.4-6.7s-3.8-5.1-3.4-8.1c0.3-2.4,1.8-4.4,3-6.5s1.8-4.8,0.3-6.8c-2-2.8-6.9-2.5-9.2-5.1
	c-1.7-2-1.4-4.8-1.6-7.3c-0.4-6.1-4.6-11.8-10.6-14.4c-6.2-2.6-13.2-2.2-19,1.3L125.5,151.1z"/>
<polygon class="st2" points="78.1,531.2 66.4,527.7 74.4,480.7 91.7,485.9 "/>
<path class="st1" d="M77.7,543.5l-37.9-11.4l0.1-0.5c2.4-8.1,11-12.8,19.2-10.3c0,0,0,0,0,0l0,0l23.1,6.9L77.7,543.5z"/>
<polygon class="st2" points="188.9,531.6 176.7,531.6 170.8,484.3 188.9,484.3 "/>
<path class="st1" d="M192,543.5l-39.5,0V543c0-8.5,6.9-15.4,15.4-15.4c0,0,0,0,0,0h0l24.1,0L192,543.5z"/>
<path class="st1" d="M171.9,495.8c-2.2,0-4.1-1.6-4.4-3.8l-18.2-113.6c-0.3-1.9-2.1-3.2-4-2.9c-1.2,0.2-2.2,1-2.7,2.1L95.4,491.2
	c-0.9,2.2-3.3,3.3-5.6,2.5l-17-5.7c-2.2-0.7-3.5-3-3-5.3l38.6-171c0.4-1.7,1.7-3,3.4-3.4l51.8-12c1.3-0.3,2.6,0,3.7,0.8
	C201.5,322,198.6,403,192.3,491c-0.2,2.3-2,4.1-4.3,4.2l-15.9,0.7C172,495.8,172,495.8,171.9,495.8z"/>
<circle class="st2" cx="128.3" cy="191.6" r="24.6"/>
<path class="st3" d="M129.3,318.9c-5.9,0-11.7-1.4-17-3.9l-0.2-0.1l-0.1-0.2l-22-57.1l-0.4-9.9c-0.6-13.1,9.6-24.2,22.7-24.8
	c0.8,0,1.6,0,2.3,0l23.4,1.3c12.5,0.7,22.4,11.1,22.4,23.6c0.6,1.2,4.9,10.3-3.5,18.9c-0.3,2-3.3,22.2,7.9,33.4l0.3,0.3l-0.3,0.3
	C164.7,301,150.4,318.9,129.3,318.9z"/>
<path class="st2" d="M162.2,323.2c5.2-1.9,7.9-7.7,6-12.9c-0.2-0.6-0.5-1.1-0.7-1.6l23.4-27l-18.4-2.4l-19.4,26
	c-4.6,3.1-5.9,9.4-2.8,14C152.9,323.2,157.8,324.8,162.2,323.2L162.2,323.2z"/>
<path class="st3" d="M176.8,302.3c-0.9,0-1.7-0.3-2.5-0.7l-11.6-7.6c-2-1.3-2.6-4-1.4-6.1l8.4-14.1c1.8-3,0.8-6.8-2.2-8.6
	c-0.2-0.1-0.4-0.2-0.6-0.3l-24-10.8c-6.1-2.8-9.5-9.4-8.1-15.9l0,0c1.6-7.7,9.2-12.6,16.9-11c1.2,0.3,2.4,0.7,3.6,1.3l36.5,18.7
	c9.4,4.8,13.2,16.4,8.3,25.8c-0.4,0.9-0.9,1.7-1.5,2.5l-18,25C179.6,301.6,178.2,302.3,176.8,302.3z"/>
<path class="st1" d="M103.1,188.1c7.8-0.6,14.2-8.4,13.4-16.1c-0.2,6.6,4.6,12.3,11.1,13.2c3.6,0.4,7.5-0.7,10.6,1.1
	c3.4,2,4.5,6.8,8.1,8.5c3.5,1.7,7.8-0.6,9.5-4s1.3-7.6,0.2-11.2c-5.2-16.7-22.9-26.1-39.6-20.9c-5,1.5-9.5,4.3-13.1,7.9
	c-3.3,3.3-5.9,7.5-6.3,12.1s1.7,9.6,5.9,11.7L103.1,188.1z"/>
<path class="st2" d="M46,120.1c4.9,2.6,6.7,8.7,4.1,13.6c-0.3,0.5-0.6,1-1,1.5l19.2,30.2L49.7,165l-15.3-28.6
	c-4.1-3.8-4.4-10.1-0.7-14.3C36.8,118.7,41.9,117.8,46,120.1L46,120.1z"/>
<path class="st3" d="M61.4,141.5l24.7,58.3l25.9,43.9c4,6.8,1.7,15.4-5,19.4c-1,0.6-2,1-3.1,1.4l0,0c-6.7,2-13.9-1.2-17-7.6
	L37.1,150.4c-1.1-2.3-0.1-4.9,2.2-6c0.2-0.1,0.3-0.2,0.5-0.2l16.2-5.2c0.3-0.1,0.6-0.2,0.9-0.2C58.8,138.6,60.7,139.7,61.4,141.5z"
	/>
<path class="st4" d="M133.6,17.3v82c0,0.6-0.4,1-1,1s-1-0.4-1-1v-82c0-0.6,0.4-1,1-1S133.6,16.8,133.6,17.3z"/>
<path class="st4" d="M220.4,86.9l-28.3,28.3c-0.4,0.4-1,0.4-1.4,0c-0.4-0.4-0.4-1,0-1.4L219,85.5c0.4-0.4,1-0.4,1.4,0
	C220.8,85.9,220.8,86.5,220.4,86.9C220.4,86.9,220.4,86.9,220.4,86.9z"/>
<path class="st4" d="M44.8,86.9l28.3,28.3c0.4,0.4,1,0.4,1.4,0c0.4-0.4,0.4-1,0-1.4L46.2,85.5c-0.4-0.4-1-0.4-1.4,0
	C44.4,85.9,44.4,86.5,44.8,86.9C44.8,86.9,44.8,86.9,44.8,86.9L44.8,86.9z"/>
</svg>
